<?xml version="1.0" standalone="no"?>
<!DOCTYPE svg PUBLIC "-//W3C//DTD SVG 20010904//EN"
 "http://www.w3.org/TR/2001/REC-SVG-20010904/DTD/svg10.dtd">
<svg version="1.0" xmlns="http://www.w3.org/2000/svg"
 width="512.000000pt" height="471.540503pt" viewBox="0 0 512.000000 471.540503"
 preserveAspectRatio="xMidYMid meet">
<metadata>
Created by potrace 1.16, written by Peter Selinger 2001-2019
</metadata>
<g transform="translate(0.000000,512.174519) scale(0.100000,-0.100000)"
fill="#000000" stroke="none">
<path fill="#000000" stroke="none" d="M0 3086 c0 -1120 3 -2036 6 -2036 23 0
122 56 138 77 19 25 18 26 -3 69 -35 73 -27 137 22 192 21 22 21 24 4 71 -21
61 -22 109 -1 150 14 29 17 102 22 577 3 299 8 544 13 544 40 0 39 6 40 -424
1 -226 4 -615 8 -863 6 -451 6 -453 28 -475 15 -15 26 -19 33 -12 6 6 12 329
17 907 3 493 9 897 13 897 4 0 14 -8 22 -17 13 -16 16 -112 23 -713 8 -809 11
-892 25 -936 11 -34 38 -53 45 -31 2 6 6 423 8 925 4 836 3 913 -12 921 -8 5
-13 12 -10 15 3 4 18 -3 32 -14 l26 -21 3 -928 c3 -894 4 -930 22 -950 10 -11
22 -19 26 -16 4 2 10 251 13 552 16 1329 20 1473 33 1473 7 0 16 -19 19 -44 4
-25 10 -461 14 -970 3 -508 10 -928 14 -933 40 -39 45 108 53 1597 3 617 9
1115 15 1154 10 74 38 136 69 151 10 6 74 42 142 81 219 126 698 383 790 424
26 11 75 37 110 56 66 38 108 57 108 49 0 -3 -31 -20 -68 -39 -38 -19 -93 -49
-123 -67 -30 -17 -155 -85 -279 -149 -329 -172 -401 -210 -545 -293 -111 -64
-134 -81 -155 -118 l-25 -44 0 -670 c0 -818 15 -2071 26 -2105 6 -21 7 -18 8
18 1 25 5 41 11 37 5 -3 12 4 14 17 9 41 27 1599 26 2129 -2 632 -3 584 16
603 20 20 44 21 44 1 0 -14 3 -13 25 2 13 10 25 23 25 29 0 10 70 54 86 54 5
-1 -2 -7 -16 -15 -14 -8 -21 -14 -17 -15 14 0 137 74 137 83 0 4 4 6 9 2 8 -4
89 38 161 85 8 6 22 13 30 17 8 4 39 22 68 41 30 18 60 31 68 28 20 -7 95 31
91 46 -2 12 212 131 256 143 12 3 5 -4 -16 -15 -70 -38 -31 -32 44 7 96 49
136 67 124 54 -9 -9 -343 -186 -680 -360 -77 -40 -202 -107 -277 -148 -129
-71 -138 -78 -144 -111 -18 -92 18 -2124 40 -2272 11 -77 13 -36 19 425 4 281
12 798 18 1150 l12 640 25 27 c14 15 29 25 34 22 5 -3 17 1 26 9 28 23 144 88
357 196 110 57 199 107 198 112 -2 4 11 16 28 25 17 8 28 11 25 5 -13 -21 15
-11 135 50 67 33 123 58 126 56 2 -3 -35 -26 -84 -52 -48 -26 -115 -62 -148
-80 -33 -18 -118 -63 -190 -100 -372 -191 -416 -217 -411 -233 24 -80 26 -179
29 -1232 2 -1191 1 -1170 47 -1170 20 0 20 10 21 488 0 776 8 1670 14 1760 4
46 11 94 17 107 7 15 54 47 137 91 69 37 165 89 213 116 124 70 389 195 416
196 34 1 26 -6 -19 -18 -22 -6 -43 -18 -46 -26 -3 -7 -11 -14 -18 -14 -7 0
-24 -9 -37 -20 -26 -20 -335 -178 -515 -264 -68 -32 -105 -55 -109 -69 -7 -23
3 -1906 12 -2263 5 -197 4 -242 -10 -298 -16 -62 -16 -71 -1 -124 9 -31 26
-73 36 -94 l19 -38 108 1 c59 1 136 5 172 9 52 5 33 7 -91 8 -170 2 -175 4
-198 65 -10 25 -9 28 6 23 17 -5 18 62 22 1307 2 721 7 1322 12 1335 25 66 29
-12 30 -606 2 -532 11 -1162 17 -1081 1 15 9 30 18 33 13 5 15 2 11 -13 -5
-20 17 -36 34 -25 5 3 9 -5 9 -17 0 -16 5 -20 20 -16 10 3 20 1 22 -3 5 -15
70 -19 127 -9 132 23 211 43 211 53 0 6 4 4 10 -4 8 -12 10 -12 15 2 4 9 20
22 36 28 16 7 26 16 23 21 -3 5 4 9 15 9 10 0 22 6 24 13 4 9 6 8 6 -2 1 -12
4 -12 18 1 10 9 29 18 43 21 30 6 144 49 182 68 16 8 28 22 28 32 0 10 8 20
17 23 10 3 26 10 35 15 10 5 23 9 29 9 6 0 24 9 40 21 16 11 29 17 29 13 0 -4
8 0 18 8 25 22 46 33 39 21 -4 -6 12 -4 35 4 66 23 80 33 75 54 -4 15 0 19 21
20 26 1 26 1 4 8 -21 5 -19 8 20 19 23 7 47 12 52 12 5 -1 12 2 15 8 3 5 56
26 116 46 61 21 121 44 135 51 14 7 30 14 35 15 52 12 105 40 121 66 9 13 25
24 35 24 11 0 19 4 19 10 0 5 17 16 37 25 21 9 50 23 65 31 14 8 35 14 46 14
11 0 25 7 32 15 7 8 20 15 29 15 14 0 14 2 1 10 -13 8 -13 10 1 10 9 0 22 7
29 15 7 9 33 21 58 27 42 10 43 12 22 20 -13 5 -31 6 -39 2 -9 -4 -22 -6 -29
-5 -6 1 -12 -2 -12 -8 0 -5 -21 -12 -47 -15 -125 -15 -133 -15 -133 0 0 17 9
18 44 4 14 -5 26 -6 26 -1 0 4 11 14 25 21 13 7 22 17 19 22 -3 4 1 9 8 9 7 1
18 2 23 4 6 1 18 3 28 3 9 1 27 12 39 24 17 17 20 18 15 4 -6 -14 -3 -16 14
-11 12 4 27 8 34 9 7 1 20 8 29 15 14 12 14 15 2 25 -12 9 -9 16 17 41 17 17
27 24 23 17 -5 -8 11 1 35 18 24 18 43 37 41 42 -2 6 4 8 12 5 9 -4 26 4 40
18 14 14 34 25 45 25 29 0 71 28 115 78 21 23 44 42 51 42 7 0 15 4 17 9 5 15
43 18 41 4 -5 -23 14 -14 21 10 5 18 8 20 16 7 6 -10 10 216 10 667 l0 682
-22 3 c-26 3 -28 18 -5 32 12 8 24 5 44 -10 l28 -21 6 -514 c3 -283 7 -723 8
-978 1 -477 6 -541 40 -541 14 0 16 42 16 413 1 226 2 691 3 1032 1 341 2 625
2 631 0 32 -49 34 -1273 45 -672 6 -1355 14 -1517 18 l-295 7 410 7 c226 4
613 12 860 17 248 6 662 13 920 16 374 5 475 9 492 20 17 10 64 14 186 14
l163 0 42 -32 c86 -66 79 26 87 -1197 l7 -1083 -128 -122 c-439 -417 -523
-496 -559 -522 -92 -67 -199 -161 -237 -209 -39 -49 -40 -50 -17 -54 18 -2 36
10 74 51 28 30 87 87 133 127 139 122 702 662 737 707 l24 31 5 854 c3 470 9
974 12 1120 l6 266 -34 28 c-70 59 13 55 -1411 62 -722 3 -1393 9 -1492 13
-159 6 -136 7 200 9 209 1 576 6 815 11 673 16 1347 16 1548 1 152 -12 175
-11 190 2 9 8 32 22 50 31 l33 17 57 -43 c30 -24 69 -56 86 -73 l31 -30 0
-1122 c0 -1021 1 -1123 16 -1123 14 0 17 84 23 878 9 1249 9 1369 -1 1384 -11
20 -131 112 -173 133 -31 16 -42 16 -117 5 -66 -11 -331 -12 -1290 -7 -1253 6
-1589 18 -852 31 222 4 526 11 674 16 149 5 571 10 938 10 l668 0 52 -26 c29
-15 82 -46 120 -70 l67 -44 0 -847 c1 -728 3 -844 15 -823 11 21 14 172 16
857 3 864 3 863 -36 863 -7 0 -63 29 -124 64 l-111 64 -783 1 c-1063 1 -2349
24 -2287 41 33 9 933 21 2140 29 1109 7 996 15 1120 -83 63 -50 64 -50 45 -17
-25 41 -71 81 -132 111 l-47 23 -925 9 c-509 5 -1456 11 -2103 14 l-1178 6 0
-2036z"/>
<path fill="#ffffff" stroke="none" d="M1485 4230 c-3 -5 -11 -10 -16 -10 -6
0 -7 5 -4 10 3 6 11 10 16 10 6 0 7 -4 4 -10z"/>
<path fill="#ffffff" stroke="none" d="M614 3798 c3 -13 6 -180 6 -371 0 -327
-1 -348 -17 -345 -17 3 -18 29 -18 371 0 267 3 367 11 367 7 0 14 -10 18 -22z"/>
<path fill="#ffffff" stroke="none" d="M516 3730 c12 -10 14 -66 14 -331 0
-307 -1 -319 -19 -319 -19 0 -19 10 -15 305 3 168 2 311 -2 317 -11 18 -15 61
-7 78 5 11 8 7 10 -12 3 -14 11 -32 19 -38z"/>
<path fill="#ffffff" stroke="none" d="M378 3699 c2 -13 10 -31 18 -40 11 -12
14 -84 16 -362 3 -305 1 -347 -12 -345 -13 3 -16 54 -20 360 -4 267 -8 360
-17 370 -7 6 -13 20 -13 31 0 27 24 15 28 -14z"/>
<path fill="#ffffff" stroke="none" d="M308 3260 c1 -201 0 -371 -3 -378 -3
-10 -10 -10 -25 -2 -19 10 -20 20 -20 381 l0 370 23 -3 22 -3 3 -365z"/>
<path fill="#ffffff" stroke="none" d="M520 2958 c0 -32 -4 -58 -9 -58 -11 0
-21 50 -21 108 0 42 1 44 15 26 9 -11 14 -42 15 -76z"/>
<path fill="#ffffff" stroke="none" d="M4019 2636 c-9 -8 -10 6 -5 59 3 39 7
117 8 175 2 75 3 58 5 -59 3 -115 0 -168 -8 -175z"/>
<path fill="#ffffff" stroke="none" d="M3350 2886 c0 -2 -9 -6 -20 -9 -11 -3
-18 -1 -14 4 5 9 34 13 34 5z"/>
<path fill="#ffffff" stroke="none" d="M404 2848 c9 -35 7 -98 -3 -98 -12 0
-31 56 -31 91 0 35 25 39 34 7z"/>
<path fill="#ffffff" stroke="none" d="M3230 2826 c0 -2 -7 -7 -16 -10 -8 -3
-12 -2 -9 4 6 10 25 14 25 6z"/>
<path fill="#ffffff" stroke="none" d="M2679 2716 c9 -11 27 -13 69 -10 114
11 132 10 132 -2 0 -19 -21 -31 -94 -53 -38 -12 -74 -25 -80 -30 -51 -38 -236
-81 -348 -81 l-70 0 39 39 c21 21 52 54 69 73 50 55 106 78 195 78 54 0 80 -4
88 -14z"/>
<path fill="#ffffff" stroke="none" d="M1257 1572 c1 -9 6 -56 9 -103 7 -94
-1 -154 -17 -128 -10 16 -13 266 -2 255 4 -3 8 -14 10 -24z"/>
<path fill="#000000" stroke="none" d="M4366 5112 c-2 -4 21 -27 52 -52 30
-25 64 -57 75 -72 20 -27 20 -43 21 -1377 1 -900 4 -1347 11 -1340 7 7 11 479
13 1368 l2 1357 -56 62 c-43 48 -62 62 -84 62 -16 0 -31 -3 -34 -8z"/>
<path fill="#000000" stroke="none" d="M4572 5093 c13 -16 31 -37 40 -48 16
-18 18 -80 22 -815 2 -445 8 -810 13 -830 l9 -35 7 45 c3 25 9 392 12 815 3
424 8 784 11 801 3 24 -2 39 -22 63 -22 26 -33 31 -71 31 l-45 0 24 -27z"/>
<path fill="#000000" stroke="none" d="M4769 5091 c20 -28 21 -35 21 -1350 l1
-1322 -36 -41 c-19 -23 -35 -45 -35 -50 0 -4 -6 -8 -14 -8 -7 0 -25 -17 -40
-39 -15 -21 -55 -61 -89 -89 -69 -57 -274 -252 -242 -231 16 11 15 8 -4 -14
-14 -15 -26 -25 -29 -23 -2 3 -83 -73 -180 -167 -98 -95 -222 -215 -277 -267
-314 -297 -517 -510 -486 -510 5 0 12 4 15 9 4 5 36 29 74 54 106 70 300 235
506 432 321 306 395 375 556 519 204 183 294 271 334 326 l34 45 6 170 c3 94
6 393 7 665 1 272 3 487 6 478 3 -13 11 -16 36 -11 18 3 40 10 49 14 9 5 44 9
77 9 l61 0 0 715 0 715 -186 0 -185 0 20 -29z"/>
<path fill="#ffffff" stroke="none" d="M4525 2119 c-22 -22 -62 -59 -90 -81
-28 -22 -13 -5 35 41 89 86 121 109 55 40z"/>
<path fill="#000000" stroke="none" d="M1674 4327 c-103 -54 -115 -70 -16 -21
50 25 92 48 92 50 0 9 -18 2 -76 -29z"/>
<path fill="#000000" stroke="none" d="M1600 4150 c-13 -8 -13 -10 2 -10 9 0
20 5 23 10 8 13 -5 13 -25 0z"/>
<path fill="#000000" stroke="none" d="M1009 3788 c-38 -35 -40 -75 -35 -693
2 -291 5 -720 5 -953 1 -371 3 -423 16 -429 9 -3 18 -4 20 -1 7 7 27 1615 23
1871 l-3 229 -26 -24z"/>
<path fill="#000000" stroke="none" d="M3270 2680 c0 -14 28 -19 33 -6 3 6 -4
13 -14 13 -10 1 -19 -2 -19 -7z"/>
<path fill="#000000" stroke="none" d="M3312 2637 c-16 -19 -23 -60 -13 -76
13 -20 51 4 51 34 0 48 -17 68 -38 42z"/>
<path fill="#000000" stroke="none" d="M4648 2494 c-5 -4 -8 -22 -8 -39 0 -18
-10 -45 -22 -61 -17 -23 -14 -22 17 8 35 33 37 39 29 68 -5 18 -12 28 -16 24z"/>
<path fill="#000000" stroke="none" d="M4246 2351 c-27 -25 -97 -91 -155 -147
-58 -55 -144 -130 -191 -166 -47 -36 -194 -176 -325 -310 -132 -134 -260 -262
-285 -284 -25 -22 -63 -59 -85 -82 l-39 -42 32 0 c26 0 37 8 62 43 16 23 34
47 39 52 29 33 495 480 551 530 38 33 131 119 208 190 76 72 163 150 192 175
38 33 51 51 49 66 -4 19 -9 17 -53 -25z"/>
<path fill="#000000" stroke="none" d="M4329 2221 c-48 -47 -200 -196 -340
-331 -139 -135 -357 -346 -483 -470 -326 -319 -345 -340 -315 -340 6 0 8 -9 3
-22 -6 -21 -4 -20 26 7 18 17 47 53 65 80 18 28 133 147 256 265 799 770 934
908 881 899 -4 -1 -46 -40 -93 -88z"/>
<path fill="#000000" stroke="none" d="M5098 1984 c-10 -18 -42 -54 -72 -80
-156 -140 -675 -647 -734 -717 -81 -97 -127 -157 -119 -157 47 0 903 835 935
911 7 18 12 41 10 53 -3 19 -5 18 -20 -10z"/>
<path fill="#000000" stroke="none" d="M4970 1341 c-143 -144 -245 -274 -238
-304 2 -9 74 58 196 184 182 187 193 200 190 232 l-3 34 -145 -146z"/>
<path fill="#000000" stroke="none" d="M904 1210 c0 -69 1 -97 3 -62 2 34 2
90 0 125 -2 34 -3 6 -3 -63z"/>
<path fill="#000000" stroke="none" d="M5045 1148 c-38 -44 -95 -108 -127
-142 -84 -92 -138 -159 -138 -174 0 -17 130 97 248 217 87 90 92 98 92 138 0
24 -1 43 -2 42 -2 0 -34 -37 -73 -81z"/>
<path fill="#000000" stroke="none" d="M887 982 c-3 -4 32 -48 78 -97 l83 -90
161 4 c114 2 166 0 176 -9 24 -20 1462 3 1482 24 6 6 -1533 13 -1702 8 -49 -1
-99 0 -110 2 -11 3 -49 41 -84 86 -63 78 -75 88 -84 72z"/>
<path fill="#000000" stroke="none" d="M770 898 c0 -4 49 -62 108 -129 l108
-123 719 5 c396 2 1028 3 1405 1 377 -1 692 -3 700 -3 8 0 128 1 265 2 275 1
277 10 5 29 -111 8 -264 10 -470 5 -308 -7 -554 -7 -1890 -1 l-736 3 -107 109
c-58 60 -107 106 -107 102z"/>
<path fill="#000000" stroke="none" d="M762 709 c51 -56 116 -126 145 -157
l52 -57 1513 0 c1315 0 2165 5 2061 13 -17 1 -84 11 -150 22 -65 12 -179 23
-253 25 -259 9 -585 11 -615 4 -29 -6 -29 -7 -5 -9 149 -17 -1655 -26 -2200
-11 -129 3 -259 4 -289 1 -64 -7 -56 -12 -220 154 -63 64 -119 116 -124 116
-5 0 33 -45 85 -101z"/>
<path fill="#000000" stroke="none" d="M4974 658 c-80 -82 -150 -162 -163
-188 -19 -39 1 -22 144 121 132 131 166 171 163 188 -2 19 -24 1 -144 -121z"/>
<path fill="#000000" stroke="none" d="M4812 695 c-34 -36 -66 -75 -72 -87
-12 -23 84 75 121 125 34 45 15 31 -49 -38z"/>
<path fill="#000000" stroke="none" d="M1237 563 c18 -2 50 -2 70 0 21 2 7 4
-32 4 -38 0 -55 -2 -38 -4z"/>
<path fill="#000000" stroke="none" d="M1383 563 c9 -2 25 -2 35 0 9 3 1 5
-18 5 -19 0 -27 -2 -17 -5z"/>
<path fill="#000000" stroke="none" d="M5065 488 c-69 -90 -73 -97 -36 -63 47
43 93 103 89 116 -2 6 -26 -18 -53 -53z"/>
</g>
</svg>
